<svg xmlns="http://www.w3.org/2000/svg" width="647" height="151.001"><g fill="#fff"><path fill-rule="evenodd" d="M445 31a196.6 196.6 0 0 1 28 1q-13.168 19.929-27 39.5 14.627 23.256 30 46a225 225 0 0 1-30 0q-10.437-16.123-20.5-32.5a35.3 35.3 0 0 0-11.5-1v34h-26V0h26v61a36.9 36.9 0 0 0 12-1q9.888-14.286 19-29M0 118V31h24a72.4 72.4 0 0 0 .5 12Q41.467 22.938 67 30.5 82.4 37.4 85.5 54q.75 32 .5 64H60q.25-27.5-.5-55Q56.35 52.1 45 52q-13.888.057-18.5 13-.75 26.5-.5 53Z"/><path d="M194 151h-79v-23h52c.165-7.648 0-15.387-.5-23a40.7 40.7 0 0 1-12.467 8.938 34.6 34.6 0 0 1-14.213 2.98 44.4 44.4 0 0 1-10.82-1.417 52 52 0 0 1-12.544-6.884 38.2 38.2 0 0 1-8.848-9.378 38.7 38.7 0 0 1-5.152-11.873A53.5 53.5 0 0 1 100.999 73a57.1 57.1 0 0 1 2.114-15.094 41.5 41.5 0 0 1 5.871-12.365 40.9 40.9 0 0 1 9.629-9.635A55.1 55.1 0 0 1 132 29a46 46 0 0 1 8.2-.771 35 35 0 0 1 15.431 3.443 39.6 39.6 0 0 1 12.868 10.327 61 61 0 0 0 .5-11h25v120ZM146.268 50.81A29 29 0 0 0 143 51a75 75 0 0 0-10 5.5 32.28 32.28 0 0 0-4.5 24.5A18.1 18.1 0 0 0 139 92.5a52 52 0 0 0 8.5.78c6.943 0 12.111-1.919 15.361-5.7 3.991-4.644 5.218-12.241 3.638-22.58a22.7 22.7 0 0 0-4-8 24.07 24.07 0 0 0-16.231-6.19"/><path fill-rule="evenodd" d="M260 29h13v25a181 181 0 0 0-19 .5q-12.088 3.09-13.5 15.5-.75 24-.5 48h-26V31h24a43.1 43.1 0 0 0 1 13q6.69-13.074 21-15"/><path d="M324.473 119.832a50 50 0 0 1-15.61-2.583 69.3 69.3 0 0 1-15.862-7.749 54.6 54.6 0 0 1-8.408-9.512 44.07 44.07 0 0 1-7.751-22.249A55.3 55.3 0 0 1 277.5 65a56.4 56.4 0 0 1 4.973-13.285 43.4 43.4 0 0 1 7.74-10.428 43 43 0 0 1 10.509-7.572A55.3 55.3 0 0 1 314.001 29a66 66 0 0 1 9.611-.733 54 54 0 0 1 11.332 1.171 48.6 48.6 0 0 1 10.426 3.512 51 51 0 0 1 9.519 5.854 61.3 61.3 0 0 1 8.612 8.2 62 62 0 0 1 6.67 15.481 44 44 0 0 1-2.25 29.75 61.8 61.8 0 0 1-8.92 14.269 66.9 66.9 0 0 1-17.1 10 48.3 48.3 0 0 1-17.428 3.328m-2.9-67.9c-.833 0-1.7.022-2.573.065a21.92 21.92 0 0 0-13.5 12c-3.922 11.559-1.4 21.484 7.5 29.5a33.4 33.4 0 0 0 12.148 2.67c9.144 0 15.655-5.778 19.353-17.171.922-9.247-.67-16.21-4.731-20.7-3.826-4.226-9.948-6.369-18.2-6.369ZM524.323 119.645a51.6 51.6 0 0 1-15.25-2.165 41.2 41.2 0 0 1-12.721-6.5 46.4 46.4 0 0 1-10.193-10.823 69 69 0 0 1-7.658-15.158 66.8 66.8 0 0 1 .247-19.885 42.8 42.8 0 0 1 6.165-15.957 42.4 42.4 0 0 1 12.085-12.043 65.4 65.4 0 0 1 18-8.114c2.389-.161 4.733-.243 6.97-.243a65.5 65.5 0 0 1 21.845 3.327 42.2 42.2 0 0 1 8.588 4.16 37 37 0 0 1 7.032 5.823 38.8 38.8 0 0 1 5.476 7.49 48 48 0 0 1 3.92 9.151 78.8 78.8 0 0 1 3.172 23.294 1123 1123 0 0 0-67.001 1c4.17 9.92 10.845 14.955 19.84 14.955a32.7 32.7 0 0 0 9.16-1.454 15.83 15.83 0 0 0 9-7 367 367 0 0 1 27-.5 49 49 0 0 1-4.948 11.008 38.23 38.23 0 0 1-16.5 14.75A49.8 49.8 0 0 1 537 118.503a75.5 75.5 0 0 1-12.677 1.142m-.331-69.705c-.649 0-1.319.02-1.992.06-8.165 1.684-13.885 6.563-17 14.5 5.532.345 11.142.52 16.673.52 7.744 0 15.593-.343 23.328-1.021-4.004-9.329-11.072-14.06-21.009-14.06Z"/><path fill-rule="evenodd" d="M633 29h14v25q-10.012-.249-20 .5-12.371 4.375-13.5 17.5-.75 23-.5 46h-26V31h25a85 85 0 0 0 .5 13q6.293-13.06 20.5-15"/></g></svg>